/* XPM */
static char * calendar_xpm[] = {
"16 16 5 1",
" 	c None",
".	c #DE935F",
"+	c #707880",
"@	c #8C9440",
"#	c #A54242",
"   .        .   ",
" ++.++++++++.++ ",
" + .        . + ",
" +            + ",
" ++++++++++++++ ",
" +            + ",
" +    + + @ # + ",
" +            + ",
" +  + + + @ # + ",
" +            + ",
" +  + + + @ # + ",
" +            + ",
" +  + + +     + ",
" +            + ",
" ++++++++++++++ ",
"                "};
