/* XPM */
static char * clock_xpm[] = {
"16 16 4 1",
" 	c None",
".	c #707880",
"+	c #DE935F",
"@	c #8C9440",
"                ",
"     ......     ",
"    ..    ..    ",
"   .        .   ",
"  . +        .  ",
" ..  +    +  .. ",
" .    +  +    . ",
" .     @@     . ",
" .     @@     . ",
" .            . ",
" ..          .. ",
"  .          .  ",
"   .        .   ",
"    ..    ..    ",
"     ......     ",
"                "};
