/* XPM */
static char * debian1_xpm[] = {
"24 24 97 2",
"  	c None",
". 	c #000000",
"+ 	c #0B0B0B",
"@ 	c #212121",
"# 	c #010101",
"$ 	c #252525",
"% 	c #969696",
"& 	c #E0E0E0",
"* 	c #F1F1F1",
"= 	c #DFDFDF",
"- 	c #DCDCDC",
"; 	c #A6A6A6",
"> 	c #6E6E6E",
", 	c #121212",
"' 	c #4C4C4C",
") 	c #D9D9D9",
"! 	c #FEFEFE",
"~ 	c #E1E1E1",
"{ 	c #A5A5A5",
"] 	c #949494",
"^ 	c #A8A8A8",
"/ 	c #DDDDDD",
"( 	c #F9F9F9",
"_ 	c #C4C4C4",
": 	c #272727",
"< 	c #303030",
"[ 	c #919191",
"} 	c #242424",
"| 	c #171717",
"1 	c #AEAEAE",
"2 	c #FCFCFC",
"3 	c #BFBFBF",
"4 	c #080808",
"5 	c #020202",
"6 	c #A0A0A0",
"7 	c #5C5C5C",
"8 	c #181818",
"9 	c #CECECE",
"0 	c #E7E7E7",
"a 	c #424242",
"b 	c #363636",
"c 	c #EBEBEB",
"d 	c #656565",
"e 	c #6B6B6B",
"f 	c #888888",
"g 	c #6D6D6D",
"h 	c #1D1D1D",
"i 	c #777777",
"j 	c #222222",
"k 	c #999999",
"l 	c #0D0D0D",
"m 	c #7A7A7A",
"n 	c #030303",
"o 	c #525252",
"p 	c #E4E4E4",
"q 	c #202020",
"r 	c #AAAAAA",
"s 	c #8F8F8F",
"t 	c #151515",
"u 	c #4E4E4E",
"v 	c #E3E3E3",
"w 	c #9D9D9D",
"x 	c #A3A3A3",
"y 	c #6A6A6A",
"z 	c #B7B7B7",
"A 	c #A9A9A9",
"B 	c #7B7B7B",
"C 	c #818181",
"D 	c #BABABA",
"E 	c #565656",
"F 	c #B9B9B9",
"G 	c #1C1C1C",
"H 	c #959595",
"I 	c #666666",
"J 	c #7C7C7C",
"K 	c #B4B4B4",
"L 	c #6C6C6C",
"M 	c #3D3D3D",
"N 	c #E6E6E6",
"O 	c #2E2E2E",
"P 	c #747474",
"Q 	c #8E8E8E",
"R 	c #060606",
"S 	c #C7C7C7",
"T 	c #BBBBBB",
"U 	c #636363",
"V 	c #404040",
"W 	c #979797",
"X 	c #C1C1C1",
"Y 	c #070707",
"Z 	c #BDBDBD",
"` 	c #2F2F2F",
" .	c #606060",
"..	c #A1A1A1",
"+.	c #595959",
"@.	c #141414",
"#.	c #1E1E1E",
"                  . . . . . .                   ",
"            . . . . . . . . . . . .             ",
"          . . . . . . . . . . . . . .           ",
"        . . . . . . + @ # # . . . . . .         ",
"      . . . . . $ % & * = - ; > , . . . .       ",
"    . . . . . ' ) ! ~ { ] ^ / ( _ : . . . .     ",
"  . . . . . < = * [ } . . . | 1 2 3 4 . . . .   ",
"  . . . . 5 6 = 7 # . . . . . 8 9 0 a . . . .   ",
"  . . . . b c d . . . e f g h . i / j . . . .   ",
". . . . . k 9 l . . ' m 4 # n . o p q . . . . . ",
". . . . . r r . . . s t . . . . u v @ . . . . . ",
". . . . . r w . . . x 8 . . . . y z # . . . . . ",
". . . . . A 6 . . . B C . . . : D E . . . . . . ",
". . . . . [ F . . . G H [ I J K L . . . . . . . ",
". . . . . M N g . . . O P Q J j . . . . . . . . ",
"  . . . . R S T . . . . . 5 . . . . . . . . .   ",
"  . . . . . U ~ V . . . . . . . . . . . . . .   ",
"  . . . . . . W X | . . . . . . . . . . . . .   ",
"    . . . . . Y k Z ` . . . . . . . . . . .     ",
"      . . . . . 5  ...+.@.. . . . . . . .       ",
"        . . . . . . . } #.. . . . . . .         ",
"          . . . . . . . . . . . . . .           ",
"            . . . . . . . . . . . .             ",
"                  . . . . . .                   "};
