/* XPM */
static char * read_1_xpm[] = {
"8 16 3 1",
" 	c None",
".	c #707880",
"+	c #8C9440",
"        ",
" ...... ",
" .++++. ",
" .++++. ",
" .++++. ",
" .++++. ",
" .++++. ",
" .++++. ",
" .++++. ",
" .++++. ",
" .++++. ",
" .++++. ",
" .++++. ",
" .++++. ",
" ...... ",
"        "};
