/* XPM */
static char * brightness_6_xpm[] = {
"16 16 3 1",
" 	c None",
".	c #707880",
"+	c #E6E6E6",
"                ",
"       .        ",
"    . .... .    ",
"    ..    ..    ",
"  ..        ..  ",
"   .++++++++.   ",
"  .++++++++++.  ",
"  .++++++++++.. ",
" ..++++++++++.  ",
"  .++++++++++.  ",
"   .++++++++.   ",
"  ..++++++++..  ",
"    ..++++..    ",
"    . .... .    ",
"        .       ",
"                "};
