/* XPM */
static char * brightness_0_xpm[] = {
"16 16 2 1",
" 	c None",
".	c #707880",
"                ",
"       .        ",
"    . .... .    ",
"    ..    ..    ",
"  ..        ..  ",
"   .        .   ",
"  .          .  ",
"  .          .. ",
" ..          .  ",
"  .          .  ",
"   .        .   ",
"  ..        ..  ",
"    ..    ..    ",
"    . .... .    ",
"        .       ",
"                "};
