/* XPM */
static char * volume_2_xpm[] = {
"17 16 2 1",
" 	c None",
".	c #707880",
"                 ",
"     .           ",
"    ..           ",
"   ...           ",
"  .... .         ",
" .....  .        ",
" .....  .        ",
" .....  .        ",
" .....  .        ",
" .....  .        ",
" .....  .        ",
"  .... .         ",
"   ...           ",
"    ..           ",
"     .           ",
"                 "};
