/* XPM */
static char * volume_8_xpm[] = {
"17 16 2 1",
" 	c None",
".	c #707880",
"                 ",
"     .           ",
"    ..     .     ",
"   ...   .  .    ",
"  .... .  .  .   ",
" .....  .  .  .  ",
" .....  .  .  .  ",
" .....  .  .  .  ",
" .....  .  .  .  ",
" .....  .  .  .  ",
" .....  .  .  .  ",
"  .... .  .  .   ",
"   ...   .  .    ",
"    ..     .     ",
"     .           ",
"                 "};
