/* XPM */
static char * storage_7_xpm[] = {
"16 16 3 1",
" 	c None",
".	c #707880",
"+	c #DE935F",
"                ",
" .............. ",
" .  .         . ",
" .  .+++++++++. ",
" .............. ",
"                ",
" .............. ",
" .  .+++++++++. ",
" .  .+++++++++. ",
" .............. ",
"                ",
" .............. ",
" .  .+++++++++. ",
" .  .+++++++++. ",
" .............. ",
"                "};
