/* XPM */
static char * storage_1_xpm[] = {
"16 16 3 1",
" 	c None",
".	c #707880",
"+	c #8C9440",
"                ",
" .............. ",
" .  .         . ",
" .  .         . ",
" .............. ",
"                ",
" .............. ",
" .  .         . ",
" .  .         . ",
" .............. ",
"                ",
" .............. ",
" .  .         . ",
" .  .+++++++++. ",
" .............. ",
"                "};
