/* XPM */
static char * write_0_xpm[] = {
"8 16 2 1",
" 	c None",
".	c #707880",
"        ",
" ...... ",
" .    . ",
" .    . ",
" .    . ",
" .    . ",
" .    . ",
" .    . ",
" .    . ",
" .    . ",
" .    . ",
" .    . ",
" .    . ",
" .    . ",
" ...... ",
"        "};
